<svg xmlns="http://www.w3.org/2000/svg" xmlns:xlink="http://www.w3.org/1999/xlink" version="1.1" x="0px" y="0px" viewBox="0 0 64 80" style="enable-background:new 0 0 64 64;" xml:space="preserve"><title>Unicorn</title><path d="M62.5,27.9c-0.2-0.8-0.7-1.5-1.4-2l-16.3-10l6.1-14.5c0.2-0.5,0-1.1-0.5-1.3c-0.4-0.2-0.9-0.1-1.1,0.3l-7.8,9.1V4.9L40,5.5  c-1.3,0.6-2.4,1.4-3.5,2.4v-4l-1.4,0.7c-2.7,1.3-5.1,3.3-6.9,5.8c-1.2-0.6-2.6-0.6-3.8,0c-0.9,0.5-1.4,1.5-1.4,2.5  c0,0.5,0.1,1,0.4,1.5c-0.5,0-1,0.2-1.5,0.4c-0.9,0.5-1.4,1.4-1.4,2.4c0,0.8,0.3,1.6,0.8,2.3c-0.7,0.2-1.3,0.6-1.7,1.2  c-0.8,1.2-0.5,3.2,2,5.4c-0.4,1.9-0.7,3.7-0.9,5.6l-2.3,2.9l-7,2.6c-3.5,1.4-5.9,4.7-6,8.5l0,4.4c0,0.6,0.4,1,1,1h0c0.6,0,1-0.4,1-1  l0-4.4c0-3,1.9-5.6,4.7-6.7l6.2-2.3l10.4,8.9c0.2,0.2,0.4,0.2,0.6,0.2c0,0,0.1,0,0.1,0c0.3,0,0.5-0.2,0.7-0.4l1.4-1.9l1,1.2  l-2.2,15.6c-0.1,0.4,0.1,0.7,0.4,0.9l3.3,2.5c0.2,0.1,0.4,0.2,0.6,0.2c0.1,0,0.1,0,0.2,0c0.3-0.1,0.5-0.2,0.7-0.5l3.3-5.7  c0.1-0.2,0.2-0.4,0.1-0.7l-2.2-13.5c0.1-0.1,0.1-0.1,0.1-0.2l0.8-2l1.1,0.9c0.2,0.2,0.4,0.3,0.7,0.3c0.1,0,0.3,0,0.4-0.1  c0.4-0.1,0.6-0.5,0.6-0.9l0.3-3.5l3.9,2C46,41,47,42.7,47,44.5v2.1c0,0.6,0.4,1,1,1s1-0.4,1-1v-2.1c0-2.6-1.4-4.9-3.7-6.1L40.6,36  l0.1-2.1c0.3-0.1,0.5-0.1,0.8-0.2l6.1,3.3c0.5,0.3,1,0.4,1.5,0.4c1.1,0,2.2-0.6,2.8-1.6l0.4-0.7c0.1-0.1,0.1-0.3,0.1-0.4  c0.4,0,0.7,0.1,1.1,0.1c3.2,0,6.1-1.6,8.4-4.6C62.5,29.6,62.7,28.7,62.5,27.9z M40.5,13.6l6.1-7.1c0,0-3.3,7.9-3.6,8.6  s-1.2,1.1-1.9,0.8c-0.7-0.3-1.1-1.2-0.8-1.9C40.3,13.8,40.4,13.7,40.5,13.6L40.5,13.6z M25.4,12c0.5-0.2,1.1-0.2,1.6,0  c-0.5,0.7-0.9,1.5-1.3,2.2c-0.4-0.4-0.6-1-0.7-1.5C25,12.5,25.1,12.2,25.4,12z M22.9,16.4c0.6-0.2,1.2-0.2,1.7,0  c-0.4,0.9-0.8,1.8-1.1,2.6c-0.6-0.5-0.9-1.2-1-2C22.5,16.8,22.6,16.6,22.9,16.4L22.9,16.4z M21.3,21.7c0.2-0.3,0.7-0.5,1.5-0.3  c-0.3,0.8-0.5,1.6-0.7,2.3C21.2,22.8,21,22,21.3,21.7L21.3,21.7z M29.1,43.4L20,35.6l1.7-2.1c1.8,1.5,6.2,4.9,10.8,5.2L29.1,43.4z   M36.8,57.1l-2.5,4.4L32.3,60L34.4,45l0.3-0.2L36.8,57.1z M32.7,41.8l2-2.9l1.2,1l-0.9,2.3l-1.3,0.8L32.7,41.8z M38.3,39.5l-1.7-1.6  c0.7-0.3,1.4-0.7,1.9-1.2L38.3,39.5z M60.4,29c-3,3.9-6.7,4.8-11.1,2.8c-0.6-0.2-1-0.7-1.1-1.3c0-0.5-0.5-1-1-1c0,0,0,0,0,0  c-0.6,0-1,0.5-1,1c0,0,0,0,0,0c0.1,1.4,1,2.5,2.2,3.1c0.6,0.3,1.3,0.5,2,0.7l-0.3,0.4c-0.3,0.6-1,0.8-1.6,0.5l-6.8-3.7l-0.4,0.1  c-1.8,0.6-3.1,0.5-4-0.2c-1.6-1.2-1.7-4.3-1.6-5.3c0-0.6-0.4-1-0.9-1.1c-0.6,0-1,0.4-1.1,0.9c0,0.2-0.4,4.9,2.3,7.1  c0.7,0.5,1.5,0.9,2.3,1c-1.1,1.5-2.7,2.4-4.6,2.6c-4.7,0.5-9.9-3.8-11.3-5c0.1-0.7,0.3-2.3,0.7-4.3c0.5,0.3,1.1,0.1,1.4-0.4  c0.3-0.5,0.1-1.1-0.3-1.3c-0.2-0.1-0.4-0.3-0.6-0.4c0.2-0.9,0.5-1.8,0.7-2.7c0.5,0.3,1,0.6,1.5,0.9c0.5,0.3,1.1,0.1,1.4-0.4  s0.1-1.1-0.4-1.4c-0.6-0.3-1.2-0.7-1.8-1.2c0.3-1,0.7-1.9,1.1-2.9c0.9,0.6,1.8,1.2,2.7,1.7c0.5,0.3,1.1,0.1,1.4-0.4  c0.3-0.5,0.1-1.1-0.4-1.4c0,0,0,0,0,0c-1-0.5-1.9-1.1-2.8-1.8c1.6-3.5,4.2-6.5,7.3-8.6v5.1c0,0.6,0.4,1,1,1s1-0.4,1-1v-1.4  c0.4-0.6,1.9-1.9,2.9-2.6v3.6c0,0,0,0,0,0L39,12.3c-1.3,1.4-1.1,3.6,0.3,4.9c1.2,1,2.9,1.1,4.2,0.3l5.1,3.1c-0.6,0.6-1,1.5-1,2.4  c0,0.6,0.4,1,1,1s1-0.4,1-1c0-0.6,0.4-1.1,0.9-1.2l9.6,5.9c0.2,0.1,0.4,0.4,0.4,0.6C60.6,28.5,60.5,28.8,60.4,29z"/><path d="M43.7,19.7c-1.8,0-3.2,1.5-3.1,3.3c0,0.6,0.4,1,1,1s1-0.4,1-1c-0.1-0.6,0.3-1.2,1-1.3s1.2,0.3,1.3,1c0,0.1,0,0.2,0,0.3  c0,0.6,0.4,1,1,1s1-0.4,1-1C46.8,21.2,45.4,19.8,43.7,19.7z"/><circle cx="55.3" cy="28" r="1"/><text x="0" y="79" fill="#000000" font-size="5px" font-weight="bold" font-family="'Helvetica Neue', Helvetica, Arial-Unicode, Arial, Sans-serif">Created by Mooms</text><text x="0" y="84" fill="#000000" font-size="5px" font-weight="bold" font-family="'Helvetica Neue', Helvetica, Arial-Unicode, Arial, Sans-serif">from the Noun Project</text></svg>